<svg width="225" height="76" viewBox="0 0 225 76" fill="none" xmlns="http://www.w3.org/2000/svg">
<path d="M1.44 13.344V11.52H19.392L22.032 23.376H22.944L26.256 11.52H39.12V13.344H37.008V40.176H39.12V42H25.968L31.296 14.4H29.328L21.696 42H15.456L9.264 14.4H7.296L11.184 42H1.44V40.176H3.552V13.344H1.44ZM52.5469 18.48V27.12H59.1229V18.48H52.5469ZM52.5469 39.12H58.5469L59.7949 33.792H64.9309L66.0349 41.28C62.2589 42.24 58.6589 42.72 55.2349 42.72C53.9229 42.72 52.8029 42.672 51.8749 42.576C50.9469 42.512 49.9069 42.304 48.7549 41.952C47.6029 41.568 46.6749 41.056 45.9709 40.416C45.2669 39.744 44.6589 38.8 44.1469 37.584C43.6669 36.336 43.4269 34.864 43.4269 33.168V26.928C43.4269 22.928 44.0669 20.096 45.3469 18.432C45.7949 17.824 46.2109 17.328 46.5949 16.944C47.0109 16.56 47.5709 16.24 48.2749 15.984C48.9789 15.696 49.5709 15.488 50.0509 15.36C50.5309 15.2 51.2189 15.088 52.1149 15.024C53.4589 14.928 54.7709 14.88 56.0509 14.88C57.3309 14.88 58.2269 14.896 58.7389 14.928C59.2509 14.928 59.9389 14.976 60.8029 15.072C61.6669 15.168 62.3069 15.312 62.7229 15.504C63.1709 15.696 63.6829 15.984 64.2589 16.368C64.8669 16.752 65.2989 17.216 65.5549 17.76C65.8429 18.304 66.0829 19.008 66.2749 19.872C66.4989 20.704 66.6109 21.68 66.6109 22.8C66.6109 23.92 66.4989 24.912 66.2749 25.776C66.0829 26.608 65.8429 27.296 65.5549 27.84C65.2989 28.384 64.8669 28.848 64.2589 29.232C63.6829 29.616 63.1709 29.904 62.7229 30.096C62.3069 30.288 61.6669 30.432 60.8029 30.528C59.6509 30.656 58.1949 30.72 56.4349 30.72H52.5469V39.12ZM81 18.48V27.12H87.576V18.48H81ZM81 39.12H87L88.248 33.792H93.384L94.488 41.28C90.712 42.24 87.112 42.72 83.688 42.72C82.376 42.72 81.256 42.672 80.328 42.576C79.4 42.512 78.36 42.304 77.208 41.952C76.056 41.568 75.128 41.056 74.424 40.416C73.72 39.744 73.112 38.8 72.6 37.584C72.12 36.336 71.88 34.864 71.88 33.168V26.928C71.88 22.928 72.52 20.096 73.8 18.432C74.248 17.824 74.664 17.328 75.048 16.944C75.464 16.56 76.024 16.24 76.728 15.984C77.432 15.696 78.024 15.488 78.504 15.36C78.984 15.2 79.672 15.088 80.568 15.024C81.912 14.928 83.224 14.88 84.504 14.88C85.784 14.88 86.68 14.896 87.192 14.928C87.704 14.928 88.392 14.976 89.256 15.072C90.12 15.168 90.76 15.312 91.176 15.504C91.624 15.696 92.136 15.984 92.712 16.368C93.32 16.752 93.752 17.216 94.008 17.76C94.296 18.304 94.536 19.008 94.728 19.872C94.952 20.704 95.064 21.68 95.064 22.8C95.064 23.92 94.952 24.912 94.728 25.776C94.536 26.608 94.296 27.296 94.008 27.84C93.752 28.384 93.32 28.848 92.712 29.232C92.136 29.616 91.624 29.904 91.176 30.096C90.76 30.288 90.12 30.432 89.256 30.528C88.104 30.656 86.648 30.72 84.888 30.72H81V39.12ZM99.3731 15.6H101.773L106.957 9.936H110.413V15.6H115.453V17.904H110.413V39.6H113.149V34.848H115.453V38.352C115.453 40.048 114.877 41.2 113.725 41.808C112.605 42.416 110.893 42.72 108.589 42.72C107.693 42.72 107.005 42.704 106.525 42.672C106.045 42.64 105.421 42.48 104.653 42.192C103.885 41.936 103.293 41.552 102.877 41.04C101.821 39.696 101.293 37.616 101.293 34.8V17.904H99.3731V15.6ZM142.652 33.264H140.54L138.86 42H122.588L118.268 13.344H116.156V11.52H129.98L132.572 39.12H136.412V11.52H144.188L146.732 39.12H150.572V11.52H161.996V13.344H159.932L154.412 42H142.652V33.264ZM174 18.48V27.12H180.576V18.48H174ZM174 39.12H180L181.248 33.792H186.384L187.488 41.28C183.712 42.24 180.112 42.72 176.688 42.72C175.376 42.72 174.256 42.672 173.328 42.576C172.4 42.512 171.36 42.304 170.208 41.952C169.056 41.568 168.128 41.056 167.424 40.416C166.72 39.744 166.112 38.8 165.6 37.584C165.12 36.336 164.88 34.864 164.88 33.168V26.928C164.88 22.928 165.52 20.096 166.8 18.432C167.248 17.824 167.664 17.328 168.048 16.944C168.464 16.56 169.024 16.24 169.728 15.984C170.432 15.696 171.024 15.488 171.504 15.36C171.984 15.2 172.672 15.088 173.568 15.024C174.912 14.928 176.224 14.88 177.504 14.88C178.784 14.88 179.68 14.896 180.192 14.928C180.704 14.928 181.392 14.976 182.256 15.072C183.12 15.168 183.76 15.312 184.176 15.504C184.624 15.696 185.136 15.984 185.712 16.368C186.32 16.752 186.752 17.216 187.008 17.76C187.296 18.304 187.536 19.008 187.728 19.872C187.952 20.704 188.064 21.68 188.064 22.8C188.064 23.92 187.952 24.912 187.728 25.776C187.536 26.608 187.296 27.296 187.008 27.84C186.752 28.384 186.32 28.848 185.712 29.232C185.136 29.616 184.624 29.904 184.176 30.096C183.76 30.288 183.12 30.432 182.256 30.528C181.104 30.656 179.648 30.72 177.888 30.72H174V39.12ZM192.613 7.008H203.653V40.176H205.573V42H192.613V40.176H194.533V8.832H192.613V7.008ZM209.676 7.008H220.716V40.176H222.636V42H209.676V40.176H211.596V8.832H209.676V7.008Z" fill="#757575"/>
<path d="M12.824 68.52H7.96L7.064 71H5.528L9.56 59.912H11.24L15.256 71H13.72L12.824 68.52ZM12.408 67.336L10.392 61.704L8.376 67.336H12.408ZM32.5909 59.928V71H31.1349V62.744L27.4549 71H26.4309L22.7349 62.728V71H21.2789V59.928H22.8469L26.9429 69.08L31.0389 59.928H32.5909ZM43.0601 66.28C43.0601 66.5573 43.0441 66.8507 43.0121 67.16H36.0041C36.0575 68.024 36.3508 68.7013 36.8841 69.192C37.4281 69.672 38.0841 69.912 38.8521 69.912C39.4815 69.912 40.0041 69.768 40.4201 69.48C40.8468 69.1813 41.1455 68.7867 41.3161 68.296H42.8841C42.6495 69.1387 42.1801 69.8267 41.4761 70.36C40.7721 70.8827 39.8975 71.144 38.8521 71.144C38.0201 71.144 37.2735 70.9573 36.6121 70.584C35.9615 70.2107 35.4495 69.6827 35.0761 69C34.7028 68.3067 34.5161 67.5067 34.5161 66.6C34.5161 65.6933 34.6975 64.8987 35.0601 64.216C35.4228 63.5333 35.9295 63.0107 36.5801 62.648C37.2415 62.2747 37.9988 62.088 38.8521 62.088C39.6841 62.088 40.4201 62.2693 41.0601 62.632C41.7001 62.9947 42.1908 63.496 42.5321 64.136C42.8841 64.7653 43.0601 65.48 43.0601 66.28ZM41.5561 65.976C41.5561 65.4213 41.4335 64.9467 41.1881 64.552C40.9428 64.1467 40.6068 63.8427 40.1801 63.64C39.7641 63.4267 39.3001 63.32 38.7881 63.32C38.0521 63.32 37.4228 63.5547 36.9001 64.024C36.3881 64.4933 36.0948 65.144 36.0201 65.976H41.5561ZM52.982 66.28C52.982 66.5573 52.966 66.8507 52.934 67.16H45.926C45.9793 68.024 46.2727 68.7013 46.806 69.192C47.35 69.672 48.006 69.912 48.774 69.912C49.4033 69.912 49.926 69.768 50.342 69.48C50.7687 69.1813 51.0673 68.7867 51.238 68.296H52.806C52.5713 69.1387 52.102 69.8267 51.398 70.36C50.694 70.8827 49.8193 71.144 48.774 71.144C47.942 71.144 47.1953 70.9573 46.534 70.584C45.8833 70.2107 45.3713 69.6827 44.998 69C44.6247 68.3067 44.438 67.5067 44.438 66.6C44.438 65.6933 44.6193 64.8987 44.982 64.216C45.3447 63.5333 45.8513 63.0107 46.502 62.648C47.1633 62.2747 47.9207 62.088 48.774 62.088C49.606 62.088 50.342 62.2693 50.982 62.632C51.622 62.9947 52.1127 63.496 52.454 64.136C52.806 64.7653 52.982 65.48 52.982 66.28ZM51.478 65.976C51.478 65.4213 51.3553 64.9467 51.11 64.552C50.8647 64.1467 50.5287 63.8427 50.102 63.64C49.686 63.4267 49.222 63.32 48.71 63.32C47.974 63.32 47.3447 63.5547 46.822 64.024C46.31 64.4933 46.0167 65.144 45.942 65.976H51.478ZM56.6799 63.432V68.6C56.6799 69.0267 56.7705 69.3307 56.9519 69.512C57.1332 69.6827 57.4479 69.768 57.8959 69.768H58.9679V71H57.6559C56.8452 71 56.2372 70.8133 55.8319 70.44C55.4265 70.0667 55.2239 69.4533 55.2239 68.6V63.432H54.0879V62.232H55.2239V60.024H56.6799V62.232H58.9679V63.432H56.6799ZM61.484 60.808C61.2067 60.808 60.972 60.712 60.78 60.52C60.588 60.328 60.492 60.0933 60.492 59.816C60.492 59.5387 60.588 59.304 60.78 59.112C60.972 58.92 61.2067 58.824 61.484 58.824C61.7507 58.824 61.9747 58.92 62.156 59.112C62.348 59.304 62.444 59.5387 62.444 59.816C62.444 60.0933 62.348 60.328 62.156 60.52C61.9747 60.712 61.7507 60.808 61.484 60.808ZM62.188 62.232V71H60.732V62.232H62.188ZM68.9415 62.072C70.0082 62.072 70.8722 62.3973 71.5335 63.048C72.1948 63.688 72.5255 64.616 72.5255 65.832V71H71.0855V66.04C71.0855 65.1653 70.8668 64.4987 70.4295 64.04C69.9922 63.5707 69.3948 63.336 68.6375 63.336C67.8695 63.336 67.2562 63.576 66.7975 64.056C66.3495 64.536 66.1255 65.2347 66.1255 66.152V71H64.6695V62.232H66.1255V63.48C66.4135 63.032 66.8028 62.6853 67.2935 62.44C67.7948 62.1947 68.3442 62.072 68.9415 62.072ZM78.5199 62.088C79.2772 62.088 79.9385 62.2533 80.5039 62.584C81.0799 62.9147 81.5065 63.3307 81.7839 63.832V62.232H83.2559V71.192C83.2559 71.992 83.0852 72.7013 82.7439 73.32C82.4025 73.9493 81.9119 74.44 81.2719 74.792C80.6425 75.144 79.9065 75.32 79.0639 75.32C77.9119 75.32 76.9519 75.048 76.1839 74.504C75.4159 73.96 74.9625 73.2187 74.8239 72.28H76.2639C76.4239 72.8133 76.7545 73.24 77.2559 73.56C77.7572 73.8907 78.3599 74.056 79.0639 74.056C79.8639 74.056 80.5145 73.8053 81.0159 73.304C81.5279 72.8027 81.7839 72.0987 81.7839 71.192V69.352C81.4959 69.864 81.0692 70.2907 80.5039 70.632C79.9385 70.9733 79.2772 71.144 78.5199 71.144C77.7412 71.144 77.0319 70.952 76.3919 70.568C75.7625 70.184 75.2665 69.6453 74.9039 68.952C74.5412 68.2587 74.3599 67.4693 74.3599 66.584C74.3599 65.688 74.5412 64.904 74.9039 64.232C75.2665 63.5493 75.7625 63.0213 76.3919 62.648C77.0319 62.2747 77.7412 62.088 78.5199 62.088ZM81.7839 66.6C81.7839 65.9387 81.6505 65.3627 81.3839 64.872C81.1172 64.3813 80.7545 64.008 80.2959 63.752C79.8479 63.4853 79.3519 63.352 78.8079 63.352C78.2639 63.352 77.7679 63.48 77.3199 63.736C76.8719 63.992 76.5145 64.3653 76.2479 64.856C75.9812 65.3467 75.8479 65.9227 75.8479 66.584C75.8479 67.256 75.9812 67.8427 76.2479 68.344C76.5145 68.8347 76.8719 69.2133 77.3199 69.48C77.7679 69.736 78.2639 69.864 78.8079 69.864C79.3519 69.864 79.8479 69.736 80.2959 69.48C80.7545 69.2133 81.1172 68.8347 81.3839 68.344C81.6505 67.8427 81.7839 67.2613 81.7839 66.6ZM96.286 59.848V61.032H91.438V64.792H95.374V65.976H91.438V71H89.982V59.848H96.286ZM101.869 71.144C101.047 71.144 100.301 70.9573 99.6285 70.584C98.9672 70.2107 98.4445 69.6827 98.0605 69C97.6872 68.3067 97.5005 67.5067 97.5005 66.6C97.5005 65.704 97.6925 64.9147 98.0765 64.232C98.4712 63.5387 99.0045 63.0107 99.6765 62.648C100.349 62.2747 101.101 62.088 101.933 62.088C102.765 62.088 103.517 62.2747 104.189 62.648C104.861 63.0107 105.389 63.5333 105.773 64.216C106.167 64.8987 106.365 65.6933 106.365 66.6C106.365 67.5067 106.162 68.3067 105.757 69C105.362 69.6827 104.823 70.2107 104.141 70.584C103.458 70.9573 102.701 71.144 101.869 71.144ZM101.869 69.864C102.391 69.864 102.882 69.7413 103.341 69.496C103.799 69.2507 104.167 68.8827 104.445 68.392C104.733 67.9013 104.877 67.304 104.877 66.6C104.877 65.896 104.738 65.2987 104.461 64.808C104.183 64.3173 103.821 63.9547 103.373 63.72C102.925 63.4747 102.439 63.352 101.917 63.352C101.383 63.352 100.893 63.4747 100.445 63.72C100.007 63.9547 99.6552 64.3173 99.3885 64.808C99.1218 65.2987 98.9885 65.896 98.9885 66.6C98.9885 67.3147 99.1165 67.9173 99.3725 68.408C99.6392 68.8987 99.9912 69.2667 100.429 69.512C100.866 69.7467 101.346 69.864 101.869 69.864ZM109.735 63.656C109.991 63.1547 110.354 62.7653 110.823 62.488C111.303 62.2107 111.884 62.072 112.567 62.072V63.576H112.183C110.551 63.576 109.735 64.4613 109.735 66.232V71H108.279V62.232H109.735V63.656ZM124.097 65.256C124.503 65.32 124.871 65.4853 125.201 65.752C125.543 66.0187 125.809 66.3493 126.001 66.744C126.204 67.1387 126.305 67.56 126.305 68.008C126.305 68.5733 126.161 69.0853 125.873 69.544C125.585 69.992 125.164 70.3493 124.609 70.616C124.065 70.872 123.42 71 122.673 71H118.513V59.848H122.513C123.271 59.848 123.916 59.976 124.449 60.232C124.983 60.4773 125.383 60.8133 125.649 61.24C125.916 61.6667 126.049 62.1467 126.049 62.68C126.049 63.3413 125.868 63.8907 125.505 64.328C125.153 64.7547 124.684 65.064 124.097 65.256ZM119.969 64.664H122.417C123.1 64.664 123.628 64.504 124.001 64.184C124.375 63.864 124.561 63.4213 124.561 62.856C124.561 62.2907 124.375 61.848 124.001 61.528C123.628 61.208 123.089 61.048 122.385 61.048H119.969V64.664ZM122.545 69.8C123.271 69.8 123.836 69.6293 124.241 69.288C124.647 68.9467 124.849 68.472 124.849 67.864C124.849 67.2453 124.636 66.76 124.209 66.408C123.783 66.0453 123.212 65.864 122.497 65.864H119.969V69.8H122.545ZM136.326 66.28C136.326 66.5573 136.31 66.8507 136.278 67.16H129.27C129.323 68.024 129.616 68.7013 130.15 69.192C130.694 69.672 131.35 69.912 132.118 69.912C132.747 69.912 133.27 69.768 133.686 69.48C134.112 69.1813 134.411 68.7867 134.582 68.296H136.15C135.915 69.1387 135.446 69.8267 134.742 70.36C134.038 70.8827 133.163 71.144 132.118 71.144C131.286 71.144 130.539 70.9573 129.878 70.584C129.227 70.2107 128.715 69.6827 128.342 69C127.968 68.3067 127.782 67.5067 127.782 66.6C127.782 65.6933 127.963 64.8987 128.326 64.216C128.688 63.5333 129.195 63.0107 129.846 62.648C130.507 62.2747 131.264 62.088 132.118 62.088C132.95 62.088 133.686 62.2693 134.326 62.632C134.966 62.9947 135.456 63.496 135.798 64.136C136.15 64.7653 136.326 65.48 136.326 66.28ZM134.822 65.976C134.822 65.4213 134.699 64.9467 134.454 64.552C134.208 64.1467 133.872 63.8427 133.446 63.64C133.03 63.4267 132.566 63.32 132.054 63.32C131.318 63.32 130.688 63.5547 130.166 64.024C129.654 64.4933 129.36 65.144 129.286 65.976H134.822ZM140.024 63.432V68.6C140.024 69.0267 140.114 69.3307 140.296 69.512C140.477 69.6827 140.792 69.768 141.24 69.768H142.312V71H141C140.189 71 139.581 70.8133 139.176 70.44C138.77 70.0667 138.568 69.4533 138.568 68.6V63.432H137.432V62.232H138.568V60.024H140.024V62.232H142.312V63.432H140.024ZM145.852 63.432V68.6C145.852 69.0267 145.942 69.3307 146.124 69.512C146.305 69.6827 146.62 69.768 147.068 69.768H148.14V71H146.828C146.017 71 145.409 70.8133 145.004 70.44C144.598 70.0667 144.396 69.4533 144.396 68.6V63.432H143.26V62.232H144.396V60.024H145.852V62.232H148.14V63.432H145.852ZM157.904 66.28C157.904 66.5573 157.888 66.8507 157.856 67.16H150.848C150.901 68.024 151.195 68.7013 151.728 69.192C152.272 69.672 152.928 69.912 153.696 69.912C154.325 69.912 154.848 69.768 155.264 69.48C155.691 69.1813 155.989 68.7867 156.16 68.296H157.728C157.493 69.1387 157.024 69.8267 156.32 70.36C155.616 70.8827 154.741 71.144 153.696 71.144C152.864 71.144 152.117 70.9573 151.456 70.584C150.805 70.2107 150.293 69.6827 149.92 69C149.547 68.3067 149.36 67.5067 149.36 66.6C149.36 65.6933 149.541 64.8987 149.904 64.216C150.267 63.5333 150.773 63.0107 151.424 62.648C152.085 62.2747 152.843 62.088 153.696 62.088C154.528 62.088 155.264 62.2693 155.904 62.632C156.544 62.9947 157.035 63.496 157.376 64.136C157.728 64.7653 157.904 65.48 157.904 66.28ZM156.4 65.976C156.4 65.4213 156.277 64.9467 156.032 64.552C155.787 64.1467 155.451 63.8427 155.024 63.64C154.608 63.4267 154.144 63.32 153.632 63.32C152.896 63.32 152.267 63.5547 151.744 64.024C151.232 64.4933 150.939 65.144 150.864 65.976H156.4ZM161.282 63.656C161.538 63.1547 161.9 62.7653 162.37 62.488C162.85 62.2107 163.431 62.072 164.114 62.072V63.576H163.73C162.098 63.576 161.282 64.4613 161.282 66.232V71H159.826V62.232H161.282V63.656ZM176.364 59.848V61.032H171.516V64.792H175.452V65.976H171.516V71H170.06V59.848H176.364ZM185.899 62.232V71H184.443V69.704C184.165 70.152 183.776 70.504 183.275 70.76C182.784 71.0053 182.24 71.128 181.643 71.128C180.96 71.128 180.347 70.9893 179.803 70.712C179.259 70.424 178.827 69.9973 178.507 69.432C178.197 68.8667 178.043 68.1787 178.043 67.368V62.232H179.483V67.176C179.483 68.04 179.701 68.7067 180.139 69.176C180.576 69.6347 181.173 69.864 181.931 69.864C182.709 69.864 183.323 69.624 183.771 69.144C184.219 68.664 184.443 67.9653 184.443 67.048V62.232H185.899ZM190.133 63.432V68.6C190.133 69.0267 190.224 69.3307 190.405 69.512C190.586 69.6827 190.901 69.768 191.349 69.768H192.421V71H191.109C190.298 71 189.69 70.8133 189.285 70.44C188.88 70.0667 188.677 69.4533 188.677 68.6V63.432H187.541V62.232H188.677V60.024H190.133V62.232H192.421V63.432H190.133ZM201.961 62.232V71H200.505V69.704C200.228 70.152 199.838 70.504 199.337 70.76C198.846 71.0053 198.302 71.128 197.705 71.128C197.022 71.128 196.409 70.9893 195.865 70.712C195.321 70.424 194.889 69.9973 194.569 69.432C194.26 68.8667 194.105 68.1787 194.105 67.368V62.232H195.545V67.176C195.545 68.04 195.764 68.7067 196.201 69.176C196.638 69.6347 197.236 69.864 197.993 69.864C198.772 69.864 199.385 69.624 199.833 69.144C200.281 68.664 200.505 67.9653 200.505 67.048V62.232H201.961ZM205.876 63.656C206.132 63.1547 206.494 62.7653 206.964 62.488C207.444 62.2107 208.025 62.072 208.708 62.072V63.576H208.324C206.692 63.576 205.876 64.4613 205.876 66.232V71H204.42V62.232H205.876V63.656ZM218.388 66.28C218.388 66.5573 218.372 66.8507 218.34 67.16H211.332C211.386 68.024 211.679 68.7013 212.212 69.192C212.756 69.672 213.412 69.912 214.18 69.912C214.81 69.912 215.332 69.768 215.748 69.48C216.175 69.1813 216.474 68.7867 216.644 68.296H218.212C217.978 69.1387 217.508 69.8267 216.804 70.36C216.1 70.8827 215.226 71.144 214.18 71.144C213.348 71.144 212.602 70.9573 211.94 70.584C211.29 70.2107 210.778 69.6827 210.404 69C210.031 68.3067 209.844 67.5067 209.844 66.6C209.844 65.6933 210.026 64.8987 210.388 64.216C210.751 63.5333 211.258 63.0107 211.908 62.648C212.57 62.2747 213.327 62.088 214.18 62.088C215.012 62.088 215.748 62.2693 216.388 62.632C217.028 62.9947 217.519 63.496 217.86 64.136C218.212 64.7653 218.388 65.48 218.388 66.28ZM216.884 65.976C216.884 65.4213 216.762 64.9467 216.516 64.552C216.271 64.1467 215.935 63.8427 215.508 63.64C215.092 63.4267 214.628 63.32 214.116 63.32C213.38 63.32 212.751 63.5547 212.228 64.024C211.716 64.4933 211.423 65.144 211.348 65.976H216.884Z" fill="black"/>
</svg>
